<mxfile host="app.diagrams.net" modified="2023-12-04T14:10:34.826Z" agent="Mozilla/5.0 (Macintosh; Intel Mac OS X 10_15_7) AppleWebKit/605.1.15 (KHTML, like Gecko) Version/16.6 Safari/605.1.15" etag="gQvqlZo1ZL_74G7ZuoIN" version="22.1.5" type="github">
  <diagram name="第 1 页" id="Wv7YBDToErYbK8juhfGM">
    <mxGraphModel dx="2233" dy="2236" grid="1" gridSize="10" guides="1" tooltips="1" connect="1" arrows="1" fold="1" page="1" pageScale="1" pageWidth="827" pageHeight="1169" math="0" shadow="0">
      <root>
        <mxCell id="0" />
        <mxCell id="1" parent="0" />
        <mxCell id="pZk_Ic55ntujiV6dr-kx-1" value="RawInstr" style="rounded=0;whiteSpace=wrap;html=1;" parent="1" vertex="1">
          <mxGeometry x="10" y="360" width="70" height="110" as="geometry" />
        </mxCell>
        <mxCell id="pZk_Ic55ntujiV6dr-kx-2" value="" style="endArrow=classic;html=1;rounded=0;" parent="1" edge="1">
          <mxGeometry width="50" height="50" relative="1" as="geometry">
            <mxPoint x="80" y="420" as="sourcePoint" />
            <mxPoint x="120" y="420" as="targetPoint" />
          </mxGeometry>
        </mxCell>
        <mxCell id="pZk_Ic55ntujiV6dr-kx-3" value="c指令切分与还原" style="rounded=1;whiteSpace=wrap;html=1;" parent="1" vertex="1">
          <mxGeometry x="120" y="385" width="120" height="60" as="geometry" />
        </mxCell>
        <mxCell id="pZk_Ic55ntujiV6dr-kx-4" value="" style="endArrow=classic;html=1;rounded=0;" parent="1" target="pZk_Ic55ntujiV6dr-kx-5" edge="1">
          <mxGeometry width="50" height="50" relative="1" as="geometry">
            <mxPoint x="240" y="420" as="sourcePoint" />
            <mxPoint x="300" y="420" as="targetPoint" />
          </mxGeometry>
        </mxCell>
        <mxCell id="pZk_Ic55ntujiV6dr-kx-5" value="对齐指令" style="rounded=0;whiteSpace=wrap;html=1;" parent="1" vertex="1">
          <mxGeometry x="280" y="360" width="60" height="120" as="geometry" />
        </mxCell>
        <mxCell id="pZk_Ic55ntujiV6dr-kx-6" value="" style="endArrow=classic;html=1;rounded=0;" parent="1" source="pZk_Ic55ntujiV6dr-kx-9" edge="1">
          <mxGeometry width="50" height="50" relative="1" as="geometry">
            <mxPoint x="340" y="420" as="sourcePoint" />
            <mxPoint x="560" y="420" as="targetPoint" />
          </mxGeometry>
        </mxCell>
        <mxCell id="pZk_Ic55ntujiV6dr-kx-10" value="" style="endArrow=classic;html=1;rounded=0;" parent="1" target="pZk_Ic55ntujiV6dr-kx-9" edge="1">
          <mxGeometry width="50" height="50" relative="1" as="geometry">
            <mxPoint x="340" y="420" as="sourcePoint" />
            <mxPoint x="520" y="416.25" as="targetPoint" />
          </mxGeometry>
        </mxCell>
        <mxCell id="pZk_Ic55ntujiV6dr-kx-9" value="多路预解码" style="rounded=1;whiteSpace=wrap;html=1;" parent="1" vertex="1">
          <mxGeometry x="390" y="390" width="120" height="60" as="geometry" />
        </mxCell>
        <mxCell id="pZk_Ic55ntujiV6dr-kx-11" value="类型与地址" style="rounded=0;whiteSpace=wrap;html=1;" parent="1" vertex="1">
          <mxGeometry x="560" y="360" width="60" height="120" as="geometry" />
        </mxCell>
        <mxCell id="pZk_Ic55ntujiV6dr-kx-12" value="" style="endArrow=classic;html=1;rounded=0;" parent="1" target="pZk_Ic55ntujiV6dr-kx-13" edge="1">
          <mxGeometry width="50" height="50" relative="1" as="geometry">
            <mxPoint x="620" y="420" as="sourcePoint" />
            <mxPoint x="680" y="420" as="targetPoint" />
          </mxGeometry>
        </mxCell>
        <mxCell id="pZk_Ic55ntujiV6dr-kx-13" value="跳转指令汇集" style="rounded=1;whiteSpace=wrap;html=1;" parent="1" vertex="1">
          <mxGeometry x="680" y="390" width="120" height="60" as="geometry" />
        </mxCell>
        <mxCell id="pZk_Ic55ntujiV6dr-kx-14" value="" style="endArrow=classic;html=1;rounded=0;" parent="1" target="pZk_Ic55ntujiV6dr-kx-16" edge="1">
          <mxGeometry width="50" height="50" relative="1" as="geometry">
            <mxPoint x="800" y="420" as="sourcePoint" />
            <mxPoint x="840" y="420" as="targetPoint" />
          </mxGeometry>
        </mxCell>
        <mxCell id="pZk_Ic55ntujiV6dr-kx-16" value="跳转汇集表" style="rounded=0;whiteSpace=wrap;html=1;" parent="1" vertex="1">
          <mxGeometry x="840" y="360" width="60" height="120" as="geometry" />
        </mxCell>
        <mxCell id="pZk_Ic55ntujiV6dr-kx-17" value="Type｜Addr" style="text;html=1;align=center;verticalAlign=middle;resizable=0;points=[];autosize=1;strokeColor=none;fillColor=none;" parent="1" vertex="1">
          <mxGeometry x="545" y="488" width="90" height="30" as="geometry" />
        </mxCell>
        <mxCell id="pZk_Ic55ntujiV6dr-kx-18" value="Type | offset" style="text;html=1;align=center;verticalAlign=middle;resizable=0;points=[];autosize=1;strokeColor=none;fillColor=none;" parent="1" vertex="1">
          <mxGeometry x="825" y="488" width="90" height="30" as="geometry" />
        </mxCell>
        <mxCell id="pZk_Ic55ntujiV6dr-kx-22" value="" style="endArrow=classic;html=1;rounded=0;entryX=0.5;entryY=0;entryDx=0;entryDy=0;" parent="1" target="pZk_Ic55ntujiV6dr-kx-5" edge="1">
          <mxGeometry width="50" height="50" relative="1" as="geometry">
            <mxPoint x="309.55" y="240" as="sourcePoint" />
            <mxPoint x="310.05" y="350" as="targetPoint" />
          </mxGeometry>
        </mxCell>
        <mxCell id="pZk_Ic55ntujiV6dr-kx-23" value="" style="endArrow=classic;html=1;rounded=0;entryX=0.5;entryY=0;entryDx=0;entryDy=0;exitX=0.5;exitY=1;exitDx=0;exitDy=0;" parent="1" source="xpvoDvsPVF759H17DhkP-2" edge="1">
          <mxGeometry width="50" height="50" relative="1" as="geometry">
            <mxPoint x="589.55" y="260" as="sourcePoint" />
            <mxPoint x="589.55" y="360" as="targetPoint" />
          </mxGeometry>
        </mxCell>
        <mxCell id="pZk_Ic55ntujiV6dr-kx-24" value="" style="endArrow=classic;html=1;rounded=0;entryX=0.5;entryY=0;entryDx=0;entryDy=0;" parent="1" edge="1">
          <mxGeometry width="50" height="50" relative="1" as="geometry">
            <mxPoint x="870" y="240" as="sourcePoint" />
            <mxPoint x="870.05" y="360" as="targetPoint" />
          </mxGeometry>
        </mxCell>
        <mxCell id="pZk_Ic55ntujiV6dr-kx-25" value="cCondFork" style="rounded=1;whiteSpace=wrap;html=1;" parent="1" vertex="1">
          <mxGeometry x="1280" y="398" width="120" height="60" as="geometry" />
        </mxCell>
        <mxCell id="pZk_Ic55ntujiV6dr-kx-26" value="" style="endArrow=classic;html=1;rounded=0;edgeStyle=orthogonalEdgeStyle;entryX=0.5;entryY=1;entryDx=0;entryDy=0;exitX=1;exitY=0.5;exitDx=0;exitDy=0;" parent="1" source="pZk_Ic55ntujiV6dr-kx-16" target="pZk_Ic55ntujiV6dr-kx-25" edge="1">
          <mxGeometry width="50" height="50" relative="1" as="geometry">
            <mxPoint x="900" y="510" as="sourcePoint" />
            <mxPoint x="950" y="460" as="targetPoint" />
            <Array as="points">
              <mxPoint x="935" y="420" />
              <mxPoint x="935" y="530" />
              <mxPoint x="1340" y="530" />
            </Array>
          </mxGeometry>
        </mxCell>
        <mxCell id="pZk_Ic55ntujiV6dr-kx-29" value="" style="endArrow=classic;html=1;rounded=0;edgeStyle=orthogonalEdgeStyle;" parent="1" edge="1">
          <mxGeometry width="50" height="50" relative="1" as="geometry">
            <mxPoint x="1400" y="412.5" as="sourcePoint" />
            <mxPoint x="1530" y="210" as="targetPoint" />
            <Array as="points">
              <mxPoint x="1471" y="412" />
              <mxPoint x="1471" y="210" />
              <mxPoint x="1530" y="210" />
            </Array>
          </mxGeometry>
        </mxCell>
        <mxCell id="pZk_Ic55ntujiV6dr-kx-31" value="N B" style="edgeLabel;html=1;align=center;verticalAlign=middle;resizable=0;points=[];" parent="pZk_Ic55ntujiV6dr-kx-29" vertex="1" connectable="0">
          <mxGeometry x="-0.1" y="2" relative="1" as="geometry">
            <mxPoint y="1" as="offset" />
          </mxGeometry>
        </mxCell>
        <mxCell id="pZk_Ic55ntujiV6dr-kx-30" value="" style="endArrow=classic;html=1;rounded=0;edgeStyle=elbowEdgeStyle;" parent="1" edge="1">
          <mxGeometry width="50" height="50" relative="1" as="geometry">
            <mxPoint x="1400" y="448" as="sourcePoint" />
            <mxPoint x="1530" y="640" as="targetPoint" />
            <Array as="points">
              <mxPoint x="1470" y="508" />
            </Array>
          </mxGeometry>
        </mxCell>
        <mxCell id="pZk_Ic55ntujiV6dr-kx-32" value="B" style="edgeLabel;html=1;align=center;verticalAlign=middle;resizable=0;points=[];" parent="pZk_Ic55ntujiV6dr-kx-30" vertex="1" connectable="0">
          <mxGeometry x="-0.2333" y="2" relative="1" as="geometry">
            <mxPoint x="5" y="22" as="offset" />
          </mxGeometry>
        </mxCell>
        <mxCell id="pZk_Ic55ntujiV6dr-kx-33" value="扫尾工作：截断指令、操纵栈、重定向pc" style="rounded=1;whiteSpace=wrap;html=1;" parent="1" vertex="1">
          <mxGeometry x="1534" y="280" width="120" height="60" as="geometry" />
        </mxCell>
        <mxCell id="pZk_Ic55ntujiV6dr-kx-35" value="送连B指令到分支预测器/学习修改权重" style="rounded=1;whiteSpace=wrap;html=1;" parent="1" vertex="1">
          <mxGeometry x="1530" y="720" width="120" height="60" as="geometry" />
        </mxCell>
        <mxCell id="pZk_Ic55ntujiV6dr-kx-38" value="" style="endArrow=classic;html=1;rounded=0;edgeStyle=orthogonalEdgeStyle;entryX=0.317;entryY=1.04;entryDx=0;entryDy=0;entryPerimeter=0;" parent="1" target="xpvoDvsPVF759H17DhkP-55" edge="1">
          <mxGeometry width="50" height="50" relative="1" as="geometry">
            <mxPoint x="1654" y="289.71" as="sourcePoint" />
            <mxPoint x="1734" y="129.70999999999998" as="targetPoint" />
          </mxGeometry>
        </mxCell>
        <mxCell id="pZk_Ic55ntujiV6dr-kx-39" value="pc" style="edgeLabel;html=1;align=center;verticalAlign=middle;resizable=0;points=[];" parent="pZk_Ic55ntujiV6dr-kx-38" vertex="1" connectable="0">
          <mxGeometry x="0.0872" y="1" relative="1" as="geometry">
            <mxPoint as="offset" />
          </mxGeometry>
        </mxCell>
        <mxCell id="pZk_Ic55ntujiV6dr-kx-40" value="" style="endArrow=classic;html=1;rounded=0;edgeStyle=orthogonalEdgeStyle;" parent="1" edge="1">
          <mxGeometry width="50" height="50" relative="1" as="geometry">
            <mxPoint x="1654" y="310" as="sourcePoint" />
            <mxPoint x="1938" y="510" as="targetPoint" />
          </mxGeometry>
        </mxCell>
        <mxCell id="pZk_Ic55ntujiV6dr-kx-44" value="指令传送" style="edgeLabel;html=1;align=center;verticalAlign=middle;resizable=0;points=[];" parent="pZk_Ic55ntujiV6dr-kx-40" vertex="1" connectable="0">
          <mxGeometry x="-0.0714" y="-4" relative="1" as="geometry">
            <mxPoint as="offset" />
          </mxGeometry>
        </mxCell>
        <mxCell id="pZk_Ic55ntujiV6dr-kx-43" value="" style="endArrow=classic;html=1;rounded=0;edgeStyle=orthogonalEdgeStyle;" parent="1" edge="1">
          <mxGeometry width="50" height="50" relative="1" as="geometry">
            <mxPoint x="1650" y="758" as="sourcePoint" />
            <mxPoint x="1960" y="570" as="targetPoint" />
          </mxGeometry>
        </mxCell>
        <mxCell id="pZk_Ic55ntujiV6dr-kx-45" value="指令传送" style="edgeLabel;html=1;align=center;verticalAlign=middle;resizable=0;points=[];" parent="pZk_Ic55ntujiV6dr-kx-43" vertex="1" connectable="0">
          <mxGeometry x="-0.1636" relative="1" as="geometry">
            <mxPoint as="offset" />
          </mxGeometry>
        </mxCell>
        <mxCell id="pZk_Ic55ntujiV6dr-kx-47" value="" style="endArrow=classic;html=1;rounded=0;" parent="1" target="xpvoDvsPVF759H17DhkP-34" edge="1">
          <mxGeometry width="50" height="50" relative="1" as="geometry">
            <mxPoint x="1400" y="433" as="sourcePoint" />
            <mxPoint x="1510" y="433" as="targetPoint" />
          </mxGeometry>
        </mxCell>
        <mxCell id="pZk_Ic55ntujiV6dr-kx-49" value="normal inst" style="edgeLabel;html=1;align=center;verticalAlign=middle;resizable=0;points=[];" parent="pZk_Ic55ntujiV6dr-kx-47" vertex="1" connectable="0">
          <mxGeometry x="0.1091" y="2" relative="1" as="geometry">
            <mxPoint as="offset" />
          </mxGeometry>
        </mxCell>
        <mxCell id="pZk_Ic55ntujiV6dr-kx-48" value="pc+4、不截断任何指令" style="rounded=1;whiteSpace=wrap;html=1;" parent="1" vertex="1">
          <mxGeometry x="1530" y="490" width="120" height="60" as="geometry" />
        </mxCell>
        <mxCell id="pZk_Ic55ntujiV6dr-kx-50" value="" style="endArrow=classic;html=1;rounded=0;entryX=0;entryY=0.5;entryDx=0;entryDy=0;" parent="1" edge="1">
          <mxGeometry width="50" height="50" relative="1" as="geometry">
            <mxPoint x="1650" y="540" as="sourcePoint" />
            <mxPoint x="1900" y="540.0000000000001" as="targetPoint" />
          </mxGeometry>
        </mxCell>
        <mxCell id="pZk_Ic55ntujiV6dr-kx-53" value="指令传送" style="edgeLabel;html=1;align=center;verticalAlign=middle;resizable=0;points=[];" parent="pZk_Ic55ntujiV6dr-kx-50" vertex="1" connectable="0">
          <mxGeometry x="0.275" y="-1" relative="1" as="geometry">
            <mxPoint x="-26" as="offset" />
          </mxGeometry>
        </mxCell>
        <mxCell id="xpvoDvsPVF759H17DhkP-1" value="cFifo" style="rounded=1;whiteSpace=wrap;html=1;" parent="1" vertex="1">
          <mxGeometry x="250" y="180" width="120" height="60" as="geometry" />
        </mxCell>
        <mxCell id="xpvoDvsPVF759H17DhkP-2" value="cFifo" style="rounded=1;whiteSpace=wrap;html=1;" parent="1" vertex="1">
          <mxGeometry x="530" y="180" width="120" height="60" as="geometry" />
        </mxCell>
        <mxCell id="xpvoDvsPVF759H17DhkP-3" value="cFifo" style="rounded=1;whiteSpace=wrap;html=1;" parent="1" vertex="1">
          <mxGeometry x="-15" y="180" width="120" height="60" as="geometry" />
        </mxCell>
        <mxCell id="xpvoDvsPVF759H17DhkP-4" value="" style="endArrow=classic;html=1;rounded=0;entryX=0.5;entryY=0;entryDx=0;entryDy=0;" parent="1" edge="1">
          <mxGeometry width="50" height="50" relative="1" as="geometry">
            <mxPoint x="44.55" y="240" as="sourcePoint" />
            <mxPoint x="44.999999999999986" y="360" as="targetPoint" />
          </mxGeometry>
        </mxCell>
        <mxCell id="xpvoDvsPVF759H17DhkP-5" value="" style="endArrow=classic;html=1;rounded=0;" parent="1" edge="1">
          <mxGeometry width="50" height="50" relative="1" as="geometry">
            <mxPoint x="105" y="200" as="sourcePoint" />
            <mxPoint x="250" y="200" as="targetPoint" />
          </mxGeometry>
        </mxCell>
        <mxCell id="xpvoDvsPVF759H17DhkP-6" value="" style="endArrow=classic;html=1;rounded=0;entryX=1.017;entryY=0.653;entryDx=0;entryDy=0;entryPerimeter=0;" parent="1" target="xpvoDvsPVF759H17DhkP-3" edge="1">
          <mxGeometry width="50" height="50" relative="1" as="geometry">
            <mxPoint x="250" y="220" as="sourcePoint" />
            <mxPoint x="300" y="170" as="targetPoint" />
            <Array as="points">
              <mxPoint x="160" y="219" />
            </Array>
          </mxGeometry>
        </mxCell>
        <mxCell id="xpvoDvsPVF759H17DhkP-7" value="" style="endArrow=classic;html=1;rounded=0;exitX=0.998;exitY=0.35;exitDx=0;exitDy=0;exitPerimeter=0;entryX=0.006;entryY=0.35;entryDx=0;entryDy=0;entryPerimeter=0;" parent="1" source="xpvoDvsPVF759H17DhkP-1" target="xpvoDvsPVF759H17DhkP-2" edge="1">
          <mxGeometry width="50" height="50" relative="1" as="geometry">
            <mxPoint x="377.5" y="200" as="sourcePoint" />
            <mxPoint x="522.5" y="200" as="targetPoint" />
          </mxGeometry>
        </mxCell>
        <mxCell id="xpvoDvsPVF759H17DhkP-8" value="" style="endArrow=classic;html=1;rounded=0;entryX=1.014;entryY=0.653;entryDx=0;entryDy=0;entryPerimeter=0;exitX=0.006;exitY=0.653;exitDx=0;exitDy=0;exitPerimeter=0;" parent="1" source="xpvoDvsPVF759H17DhkP-2" target="xpvoDvsPVF759H17DhkP-1" edge="1">
          <mxGeometry width="50" height="50" relative="1" as="geometry">
            <mxPoint x="522.5" y="220" as="sourcePoint" />
            <mxPoint x="379.5" y="219" as="targetPoint" />
            <Array as="points">
              <mxPoint x="432.5" y="219" />
            </Array>
          </mxGeometry>
        </mxCell>
        <mxCell id="xpvoDvsPVF759H17DhkP-9" value="cFifo" style="rounded=1;whiteSpace=wrap;html=1;" parent="1" vertex="1">
          <mxGeometry x="810" y="180" width="120" height="60" as="geometry" />
        </mxCell>
        <mxCell id="xpvoDvsPVF759H17DhkP-10" value="" style="endArrow=classic;html=1;rounded=0;exitX=0.998;exitY=0.35;exitDx=0;exitDy=0;exitPerimeter=0;entryX=0.006;entryY=0.35;entryDx=0;entryDy=0;entryPerimeter=0;" parent="1" edge="1">
          <mxGeometry width="50" height="50" relative="1" as="geometry">
            <mxPoint x="650" y="200.55" as="sourcePoint" />
            <mxPoint x="811" y="200.55" as="targetPoint" />
          </mxGeometry>
        </mxCell>
        <mxCell id="xpvoDvsPVF759H17DhkP-11" value="" style="endArrow=classic;html=1;rounded=0;entryX=1.014;entryY=0.653;entryDx=0;entryDy=0;entryPerimeter=0;exitX=0.006;exitY=0.653;exitDx=0;exitDy=0;exitPerimeter=0;" parent="1" edge="1">
          <mxGeometry width="50" height="50" relative="1" as="geometry">
            <mxPoint x="811" y="218.55" as="sourcePoint" />
            <mxPoint x="652" y="218.55" as="targetPoint" />
            <Array as="points">
              <mxPoint x="712.5" y="218.55" />
            </Array>
          </mxGeometry>
        </mxCell>
        <mxCell id="xpvoDvsPVF759H17DhkP-12" value="空表？第一条为B？第一条非B？" style="rounded=1;whiteSpace=wrap;html=1;" parent="1" vertex="1">
          <mxGeometry x="1000" y="500" width="120" height="60" as="geometry" />
        </mxCell>
        <mxCell id="xpvoDvsPVF759H17DhkP-22" value="" style="endArrow=classic;html=1;rounded=0;edgeStyle=elbowEdgeStyle;entryX=0;entryY=0.25;entryDx=0;entryDy=0;exitX=1.03;exitY=0.339;exitDx=0;exitDy=0;exitPerimeter=0;" parent="1" source="xpvoDvsPVF759H17DhkP-9" target="pZk_Ic55ntujiV6dr-kx-25" edge="1">
          <mxGeometry width="50" height="50" relative="1" as="geometry">
            <mxPoint x="1120" y="200" as="sourcePoint" />
            <mxPoint x="1260" y="440" as="targetPoint" />
          </mxGeometry>
        </mxCell>
        <mxCell id="xpvoDvsPVF759H17DhkP-23" value="" style="endArrow=classic;html=1;rounded=0;edgeStyle=elbowEdgeStyle;exitX=0;exitY=0.5;exitDx=0;exitDy=0;entryX=1.036;entryY=0.598;entryDx=0;entryDy=0;entryPerimeter=0;" parent="1" source="pZk_Ic55ntujiV6dr-kx-25" target="xpvoDvsPVF759H17DhkP-9" edge="1">
          <mxGeometry width="50" height="50" relative="1" as="geometry">
            <mxPoint x="1270" y="440" as="sourcePoint" />
            <mxPoint x="1120" y="219" as="targetPoint" />
            <Array as="points">
              <mxPoint x="1090" y="330" />
            </Array>
          </mxGeometry>
        </mxCell>
        <mxCell id="xpvoDvsPVF759H17DhkP-24" value="" style="endArrow=classic;html=1;rounded=0;edgeStyle=orthogonalEdgeStyle;" parent="1" target="pZk_Ic55ntujiV6dr-kx-25" edge="1">
          <mxGeometry width="50" height="50" relative="1" as="geometry">
            <mxPoint x="1340" y="530" as="sourcePoint" />
            <mxPoint x="1350" y="460" as="targetPoint" />
            <Array as="points">
              <mxPoint x="1350" y="530" />
            </Array>
          </mxGeometry>
        </mxCell>
        <mxCell id="xpvoDvsPVF759H17DhkP-25" value="" style="endArrow=classic;html=1;rounded=0;edgeStyle=orthogonalEdgeStyle;entryX=0.655;entryY=0.99;entryDx=0;entryDy=0;entryPerimeter=0;" parent="1" target="pZk_Ic55ntujiV6dr-kx-25" edge="1">
          <mxGeometry width="50" height="50" relative="1" as="geometry">
            <mxPoint x="1350" y="530" as="sourcePoint" />
            <mxPoint x="1400" y="480" as="targetPoint" />
            <Array as="points">
              <mxPoint x="1359" y="530" />
            </Array>
          </mxGeometry>
        </mxCell>
        <mxCell id="xpvoDvsPVF759H17DhkP-26" value="cFifo" style="rounded=1;whiteSpace=wrap;html=1;" parent="1" vertex="1">
          <mxGeometry x="1534" y="180" width="120" height="60" as="geometry" />
        </mxCell>
        <mxCell id="xpvoDvsPVF759H17DhkP-29" value="" style="endArrow=classic;html=1;rounded=0;edgeStyle=orthogonalEdgeStyle;entryX=1.009;entryY=0.138;entryDx=0;entryDy=0;entryPerimeter=0;" parent="1" target="pZk_Ic55ntujiV6dr-kx-25" edge="1">
          <mxGeometry width="50" height="50" relative="1" as="geometry">
            <mxPoint x="1530" y="200" as="sourcePoint" />
            <mxPoint x="1460" y="390" as="targetPoint" />
            <Array as="points">
              <mxPoint x="1460" y="200" />
              <mxPoint x="1460" y="406" />
            </Array>
          </mxGeometry>
        </mxCell>
        <mxCell id="xpvoDvsPVF759H17DhkP-32" value="" style="endArrow=classic;html=1;rounded=0;edgeStyle=orthogonalEdgeStyle;" parent="1" edge="1">
          <mxGeometry width="50" height="50" relative="1" as="geometry">
            <mxPoint x="1654" y="210" as="sourcePoint" />
            <mxPoint x="1704" y="80" as="targetPoint" />
          </mxGeometry>
        </mxCell>
        <mxCell id="xpvoDvsPVF759H17DhkP-33" value="Redirect" style="edgeLabel;html=1;align=center;verticalAlign=middle;resizable=0;points=[];" parent="xpvoDvsPVF759H17DhkP-32" vertex="1" connectable="0">
          <mxGeometry x="-0.0145" relative="1" as="geometry">
            <mxPoint as="offset" />
          </mxGeometry>
        </mxCell>
        <mxCell id="xpvoDvsPVF759H17DhkP-34" value="cFifo" style="rounded=1;whiteSpace=wrap;html=1;" parent="1" vertex="1">
          <mxGeometry x="1530" y="400" width="120" height="60" as="geometry" />
        </mxCell>
        <mxCell id="xpvoDvsPVF759H17DhkP-35" value="" style="endArrow=classic;html=1;rounded=0;entryX=1.021;entryY=0.409;entryDx=0;entryDy=0;entryPerimeter=0;exitX=-0.025;exitY=0.351;exitDx=0;exitDy=0;exitPerimeter=0;" parent="1" source="xpvoDvsPVF759H17DhkP-34" target="pZk_Ic55ntujiV6dr-kx-25" edge="1">
          <mxGeometry width="50" height="50" relative="1" as="geometry">
            <mxPoint x="1510" y="410" as="sourcePoint" />
            <mxPoint x="1560" y="360" as="targetPoint" />
          </mxGeometry>
        </mxCell>
        <mxCell id="xpvoDvsPVF759H17DhkP-41" value="" style="endArrow=classic;html=1;rounded=0;entryX=0.466;entryY=0.03;entryDx=0;entryDy=0;entryPerimeter=0;" parent="1" target="pZk_Ic55ntujiV6dr-kx-33" edge="1">
          <mxGeometry width="50" height="50" relative="1" as="geometry">
            <mxPoint x="1590" y="240" as="sourcePoint" />
            <mxPoint x="1640" y="190" as="targetPoint" />
          </mxGeometry>
        </mxCell>
        <mxCell id="xpvoDvsPVF759H17DhkP-43" value="" style="endArrow=classic;html=1;rounded=0;edgeStyle=orthogonalEdgeStyle;" parent="1" edge="1">
          <mxGeometry width="50" height="50" relative="1" as="geometry">
            <mxPoint x="1650" y="420" as="sourcePoint" />
            <mxPoint x="1748" y="80" as="targetPoint" />
          </mxGeometry>
        </mxCell>
        <mxCell id="xpvoDvsPVF759H17DhkP-44" value="Redirect" style="edgeLabel;html=1;align=center;verticalAlign=middle;resizable=0;points=[];" parent="xpvoDvsPVF759H17DhkP-43" vertex="1" connectable="0">
          <mxGeometry x="-0.0145" relative="1" as="geometry">
            <mxPoint as="offset" />
          </mxGeometry>
        </mxCell>
        <mxCell id="xpvoDvsPVF759H17DhkP-45" value="" style="endArrow=classic;html=1;rounded=0;" parent="1" edge="1">
          <mxGeometry width="50" height="50" relative="1" as="geometry">
            <mxPoint x="1589.63" y="460" as="sourcePoint" />
            <mxPoint x="1589.63" y="490" as="targetPoint" />
          </mxGeometry>
        </mxCell>
        <mxCell id="xpvoDvsPVF759H17DhkP-46" value="" style="endArrow=classic;html=1;rounded=0;edgeStyle=orthogonalEdgeStyle;entryX=0.677;entryY=1.04;entryDx=0;entryDy=0;entryPerimeter=0;" parent="1" target="xpvoDvsPVF759H17DhkP-55" edge="1">
          <mxGeometry width="50" height="50" relative="1" as="geometry">
            <mxPoint x="1650" y="520" as="sourcePoint" />
            <mxPoint x="1730" y="360" as="targetPoint" />
          </mxGeometry>
        </mxCell>
        <mxCell id="xpvoDvsPVF759H17DhkP-47" value="pc" style="edgeLabel;html=1;align=center;verticalAlign=middle;resizable=0;points=[];" parent="xpvoDvsPVF759H17DhkP-46" vertex="1" connectable="0">
          <mxGeometry x="0.0872" y="1" relative="1" as="geometry">
            <mxPoint as="offset" />
          </mxGeometry>
        </mxCell>
        <mxCell id="xpvoDvsPVF759H17DhkP-48" value="cFifo" style="rounded=1;whiteSpace=wrap;html=1;" parent="1" vertex="1">
          <mxGeometry x="1530" y="610" width="120" height="60" as="geometry" />
        </mxCell>
        <mxCell id="xpvoDvsPVF759H17DhkP-49" value="" style="endArrow=classic;html=1;rounded=0;edgeStyle=orthogonalEdgeStyle;entryX=0.852;entryY=1.005;entryDx=0;entryDy=0;entryPerimeter=0;" parent="1" target="xpvoDvsPVF759H17DhkP-55" edge="1">
          <mxGeometry width="50" height="50" relative="1" as="geometry">
            <mxPoint x="1650" y="630" as="sourcePoint" />
            <mxPoint x="1781" y="70" as="targetPoint" />
          </mxGeometry>
        </mxCell>
        <mxCell id="xpvoDvsPVF759H17DhkP-50" value="Redirect" style="edgeLabel;html=1;align=center;verticalAlign=middle;resizable=0;points=[];" parent="xpvoDvsPVF759H17DhkP-49" vertex="1" connectable="0">
          <mxGeometry x="-0.0145" relative="1" as="geometry">
            <mxPoint as="offset" />
          </mxGeometry>
        </mxCell>
        <mxCell id="xpvoDvsPVF759H17DhkP-51" value="" style="endArrow=classic;html=1;rounded=0;edgeStyle=orthogonalEdgeStyle;entryX=0.949;entryY=0.97;entryDx=0;entryDy=0;entryPerimeter=0;" parent="1" target="xpvoDvsPVF759H17DhkP-55" edge="1">
          <mxGeometry width="50" height="50" relative="1" as="geometry">
            <mxPoint x="1650" y="744.5" as="sourcePoint" />
            <mxPoint x="1730" y="584.5" as="targetPoint" />
          </mxGeometry>
        </mxCell>
        <mxCell id="xpvoDvsPVF759H17DhkP-52" value="pc" style="edgeLabel;html=1;align=center;verticalAlign=middle;resizable=0;points=[];" parent="xpvoDvsPVF759H17DhkP-51" vertex="1" connectable="0">
          <mxGeometry x="0.0872" y="1" relative="1" as="geometry">
            <mxPoint as="offset" />
          </mxGeometry>
        </mxCell>
        <mxCell id="xpvoDvsPVF759H17DhkP-54" value="" style="endArrow=classic;html=1;rounded=0;entryX=0.5;entryY=0;entryDx=0;entryDy=0;" parent="1" target="pZk_Ic55ntujiV6dr-kx-35" edge="1">
          <mxGeometry width="50" height="50" relative="1" as="geometry">
            <mxPoint x="1590" y="670" as="sourcePoint" />
            <mxPoint x="1640" y="620" as="targetPoint" />
          </mxGeometry>
        </mxCell>
        <mxCell id="xpvoDvsPVF759H17DhkP-55" value="mutexMerge" style="rounded=1;whiteSpace=wrap;html=1;" parent="1" vertex="1">
          <mxGeometry x="1680" y="20" width="120" height="60" as="geometry" />
        </mxCell>
        <mxCell id="xpvoDvsPVF759H17DhkP-56" value="" style="endArrow=classic;html=1;rounded=0;" parent="1" edge="1">
          <mxGeometry width="50" height="50" relative="1" as="geometry">
            <mxPoint x="1680" y="49.47" as="sourcePoint" />
            <mxPoint x="110" y="50" as="targetPoint" />
          </mxGeometry>
        </mxCell>
        <mxCell id="xpvoDvsPVF759H17DhkP-57" value="" style="endArrow=classic;html=1;rounded=0;" parent="1" edge="1">
          <mxGeometry width="50" height="50" relative="1" as="geometry">
            <mxPoint x="1680" y="60" as="sourcePoint" />
            <mxPoint x="110" y="60" as="targetPoint" />
          </mxGeometry>
        </mxCell>
        <mxCell id="xpvoDvsPVF759H17DhkP-58" value="" style="endArrow=classic;html=1;rounded=0;edgeStyle=orthogonalEdgeStyle;entryX=1;entryY=0.75;entryDx=0;entryDy=0;exitX=0;exitY=0.75;exitDx=0;exitDy=0;" parent="1" source="xpvoDvsPVF759H17DhkP-48" target="pZk_Ic55ntujiV6dr-kx-25" edge="1">
          <mxGeometry width="50" height="50" relative="1" as="geometry">
            <mxPoint x="1520" y="650" as="sourcePoint" />
            <mxPoint x="1410" y="460" as="targetPoint" />
          </mxGeometry>
        </mxCell>
        <mxCell id="dXFlLC0BL0wMWkCd1fqr-1" value="cFifo" style="rounded=1;whiteSpace=wrap;html=1;" parent="1" vertex="1">
          <mxGeometry x="1530" y="850" width="120" height="60" as="geometry" />
        </mxCell>
        <mxCell id="dXFlLC0BL0wMWkCd1fqr-2" value="mutexMerge" style="rounded=1;whiteSpace=wrap;html=1;" parent="1" vertex="1">
          <mxGeometry x="1900" y="510" width="120" height="60" as="geometry" />
        </mxCell>
        <mxCell id="dXFlLC0BL0wMWkCd1fqr-6" value="" style="endArrow=classic;html=1;rounded=0;edgeStyle=orthogonalEdgeStyle;entryX=0.417;entryY=0.033;entryDx=0;entryDy=0;entryPerimeter=0;" parent="1" target="dXFlLC0BL0wMWkCd1fqr-2" edge="1">
          <mxGeometry width="50" height="50" relative="1" as="geometry">
            <mxPoint x="1654" y="220" as="sourcePoint" />
            <mxPoint x="1704" y="170" as="targetPoint" />
          </mxGeometry>
        </mxCell>
        <mxCell id="dXFlLC0BL0wMWkCd1fqr-7" value="" style="endArrow=classic;html=1;rounded=0;edgeStyle=orthogonalEdgeStyle;entryX=0;entryY=0.25;entryDx=0;entryDy=0;" parent="1" target="dXFlLC0BL0wMWkCd1fqr-2" edge="1">
          <mxGeometry width="50" height="50" relative="1" as="geometry">
            <mxPoint x="1650" y="440" as="sourcePoint" />
            <mxPoint x="1860" y="530" as="targetPoint" />
            <Array as="points">
              <mxPoint x="1650" y="441" />
              <mxPoint x="1831" y="441" />
              <mxPoint x="1831" y="525" />
            </Array>
          </mxGeometry>
        </mxCell>
        <mxCell id="dXFlLC0BL0wMWkCd1fqr-9" value="" style="endArrow=classic;html=1;rounded=0;edgeStyle=orthogonalEdgeStyle;" parent="1" edge="1">
          <mxGeometry width="50" height="50" relative="1" as="geometry">
            <mxPoint x="1650" y="650" as="sourcePoint" />
            <mxPoint x="1947" y="570" as="targetPoint" />
          </mxGeometry>
        </mxCell>
        <mxCell id="dXFlLC0BL0wMWkCd1fqr-10" value="" style="endArrow=classic;html=1;rounded=0;" parent="1" edge="1">
          <mxGeometry width="50" height="50" relative="1" as="geometry">
            <mxPoint x="2020" y="539.5" as="sourcePoint" />
            <mxPoint x="2090" y="539.5" as="targetPoint" />
          </mxGeometry>
        </mxCell>
        <mxCell id="dXFlLC0BL0wMWkCd1fqr-12" value="queue" style="rounded=0;whiteSpace=wrap;html=1;" parent="1" vertex="1">
          <mxGeometry x="2090" y="640" width="120" height="180" as="geometry" />
        </mxCell>
        <mxCell id="dXFlLC0BL0wMWkCd1fqr-13" value="&lt;font style=&quot;font-size: 23px;&quot;&gt;FrontEnd&lt;/font&gt;" style="rounded=0;whiteSpace=wrap;html=1;" parent="1" vertex="1">
          <mxGeometry x="280" y="740" width="226" height="330" as="geometry" />
        </mxCell>
        <mxCell id="dXFlLC0BL0wMWkCd1fqr-15" value="" style="endArrow=classic;html=1;rounded=0;" parent="1" edge="1">
          <mxGeometry width="50" height="50" relative="1" as="geometry">
            <mxPoint x="280" y="830" as="sourcePoint" />
            <mxPoint x="120" y="830" as="targetPoint" />
          </mxGeometry>
        </mxCell>
        <mxCell id="dXFlLC0BL0wMWkCd1fqr-20" value="pc" style="edgeLabel;html=1;align=center;verticalAlign=middle;resizable=0;points=[];" parent="dXFlLC0BL0wMWkCd1fqr-15" vertex="1" connectable="0">
          <mxGeometry x="0.2078" relative="1" as="geometry">
            <mxPoint as="offset" />
          </mxGeometry>
        </mxCell>
        <mxCell id="dXFlLC0BL0wMWkCd1fqr-19" value="" style="endArrow=classic;html=1;rounded=0;" parent="1" edge="1">
          <mxGeometry width="50" height="50" relative="1" as="geometry">
            <mxPoint x="120" y="1020" as="sourcePoint" />
            <mxPoint x="280" y="1020" as="targetPoint" />
          </mxGeometry>
        </mxCell>
        <mxCell id="dXFlLC0BL0wMWkCd1fqr-23" value="data" style="edgeLabel;html=1;align=center;verticalAlign=middle;resizable=0;points=[];" parent="dXFlLC0BL0wMWkCd1fqr-19" vertex="1" connectable="0">
          <mxGeometry x="-0.125" relative="1" as="geometry">
            <mxPoint as="offset" />
          </mxGeometry>
        </mxCell>
        <mxCell id="dXFlLC0BL0wMWkCd1fqr-24" value="" style="endArrow=classic;html=1;rounded=0;" parent="1" edge="1">
          <mxGeometry width="50" height="50" relative="1" as="geometry">
            <mxPoint x="506" y="894.5" as="sourcePoint" />
            <mxPoint x="666" y="894.5" as="targetPoint" />
          </mxGeometry>
        </mxCell>
        <mxCell id="dXFlLC0BL0wMWkCd1fqr-25" value="odrive" style="edgeLabel;html=1;align=center;verticalAlign=middle;resizable=0;points=[];" parent="dXFlLC0BL0wMWkCd1fqr-24" vertex="1" connectable="0">
          <mxGeometry x="-0.1125" y="1" relative="1" as="geometry">
            <mxPoint as="offset" />
          </mxGeometry>
        </mxCell>
        <mxCell id="dXFlLC0BL0wMWkCd1fqr-26" value="" style="endArrow=classic;html=1;rounded=0;" parent="1" edge="1">
          <mxGeometry width="50" height="50" relative="1" as="geometry">
            <mxPoint x="506" y="914.5" as="sourcePoint" />
            <mxPoint x="666" y="914.5" as="targetPoint" />
          </mxGeometry>
        </mxCell>
        <mxCell id="dXFlLC0BL0wMWkCd1fqr-27" value="data" style="edgeLabel;html=1;align=center;verticalAlign=middle;resizable=0;points=[];" parent="dXFlLC0BL0wMWkCd1fqr-26" vertex="1" connectable="0">
          <mxGeometry x="-0.125" relative="1" as="geometry">
            <mxPoint as="offset" />
          </mxGeometry>
        </mxCell>
        <mxCell id="dXFlLC0BL0wMWkCd1fqr-28" value="" style="endArrow=classic;html=1;rounded=0;entryX=0.5;entryY=1;entryDx=0;entryDy=0;" parent="1" target="pZk_Ic55ntujiV6dr-kx-35" edge="1">
          <mxGeometry width="50" height="50" relative="1" as="geometry">
            <mxPoint x="1590" y="850" as="sourcePoint" />
            <mxPoint x="1640" y="800" as="targetPoint" />
          </mxGeometry>
        </mxCell>
        <mxCell id="dXFlLC0BL0wMWkCd1fqr-29" value="" style="endArrow=classic;html=1;rounded=0;entryX=1;entryY=0.25;entryDx=0;entryDy=0;" parent="1" edge="1">
          <mxGeometry width="50" height="50" relative="1" as="geometry">
            <mxPoint x="1760" y="870" as="sourcePoint" />
            <mxPoint x="1650" y="870" as="targetPoint" />
          </mxGeometry>
        </mxCell>
        <mxCell id="dXFlLC0BL0wMWkCd1fqr-30" value="" style="endArrow=classic;html=1;rounded=0;" parent="1" edge="1">
          <mxGeometry width="50" height="50" relative="1" as="geometry">
            <mxPoint x="1650" y="879.5" as="sourcePoint" />
            <mxPoint x="1760" y="879.5" as="targetPoint" />
          </mxGeometry>
        </mxCell>
        <mxCell id="dXFlLC0BL0wMWkCd1fqr-31" value="" style="endArrow=classic;html=1;rounded=0;edgeStyle=orthogonalEdgeStyle;" parent="1" edge="1">
          <mxGeometry width="50" height="50" relative="1" as="geometry">
            <mxPoint x="1870" y="820" as="sourcePoint" />
            <mxPoint x="1610" y="780" as="targetPoint" />
          </mxGeometry>
        </mxCell>
        <mxCell id="dXFlLC0BL0wMWkCd1fqr-32" value="is_correct?" style="edgeLabel;html=1;align=center;verticalAlign=middle;resizable=0;points=[];" parent="dXFlLC0BL0wMWkCd1fqr-31" vertex="1" connectable="0">
          <mxGeometry x="0.16" relative="1" as="geometry">
            <mxPoint as="offset" />
          </mxGeometry>
        </mxCell>
        <mxCell id="dXFlLC0BL0wMWkCd1fqr-33" value="&lt;font style=&quot;font-size: 25px;&quot;&gt;Module_IO&lt;/font&gt;" style="text;html=1;align=center;verticalAlign=middle;resizable=0;points=[];autosize=1;strokeColor=none;fillColor=none;" parent="1" vertex="1">
          <mxGeometry x="318" y="660" width="150" height="40" as="geometry" />
        </mxCell>
        <mxCell id="dXFlLC0BL0wMWkCd1fqr-37" value="pcGen" style="rounded=1;whiteSpace=wrap;html=1;" parent="1" vertex="1">
          <mxGeometry x="-15" y="30" width="120" height="60" as="geometry" />
        </mxCell>
        <mxCell id="dXFlLC0BL0wMWkCd1fqr-38" value="" style="endArrow=classic;html=1;rounded=0;" parent="1" edge="1">
          <mxGeometry width="50" height="50" relative="1" as="geometry">
            <mxPoint x="-15" y="49.29" as="sourcePoint" />
            <mxPoint x="-120" y="49.79" as="targetPoint" />
          </mxGeometry>
        </mxCell>
        <mxCell id="dXFlLC0BL0wMWkCd1fqr-39" value="pc" style="edgeLabel;html=1;align=center;verticalAlign=middle;resizable=0;points=[];" parent="dXFlLC0BL0wMWkCd1fqr-38" vertex="1" connectable="0">
          <mxGeometry x="0.3" y="-2" relative="1" as="geometry">
            <mxPoint as="offset" />
          </mxGeometry>
        </mxCell>
        <mxCell id="dXFlLC0BL0wMWkCd1fqr-40" value="" style="endArrow=classic;html=1;rounded=0;" parent="1" edge="1">
          <mxGeometry width="50" height="50" relative="1" as="geometry">
            <mxPoint x="-120" y="200" as="sourcePoint" />
            <mxPoint x="-15" y="200" as="targetPoint" />
          </mxGeometry>
        </mxCell>
        <mxCell id="dXFlLC0BL0wMWkCd1fqr-46" value="o_drive" style="edgeLabel;html=1;align=center;verticalAlign=middle;resizable=0;points=[];" parent="dXFlLC0BL0wMWkCd1fqr-40" vertex="1" connectable="0">
          <mxGeometry x="-0.181" y="1" relative="1" as="geometry">
            <mxPoint as="offset" />
          </mxGeometry>
        </mxCell>
        <mxCell id="dXFlLC0BL0wMWkCd1fqr-41" value="" style="endArrow=classic;html=1;rounded=0;" parent="1" edge="1">
          <mxGeometry width="50" height="50" relative="1" as="geometry">
            <mxPoint x="-15" y="220" as="sourcePoint" />
            <mxPoint x="-120" y="220" as="targetPoint" />
          </mxGeometry>
        </mxCell>
        <mxCell id="dXFlLC0BL0wMWkCd1fqr-47" value="o_free" style="edgeLabel;html=1;align=center;verticalAlign=middle;resizable=0;points=[];" parent="dXFlLC0BL0wMWkCd1fqr-41" vertex="1" connectable="0">
          <mxGeometry x="0.219" y="-1" relative="1" as="geometry">
            <mxPoint as="offset" />
          </mxGeometry>
        </mxCell>
        <mxCell id="dXFlLC0BL0wMWkCd1fqr-42" value="" style="endArrow=classic;html=1;rounded=0;" parent="1" edge="1">
          <mxGeometry width="50" height="50" relative="1" as="geometry">
            <mxPoint x="-120" y="420" as="sourcePoint" />
            <mxPoint x="10" y="419.5" as="targetPoint" />
          </mxGeometry>
        </mxCell>
        <mxCell id="dXFlLC0BL0wMWkCd1fqr-48" value="data" style="edgeLabel;html=1;align=center;verticalAlign=middle;resizable=0;points=[];" parent="dXFlLC0BL0wMWkCd1fqr-42" vertex="1" connectable="0">
          <mxGeometry x="-0.2462" relative="1" as="geometry">
            <mxPoint as="offset" />
          </mxGeometry>
        </mxCell>
        <mxCell id="dXFlLC0BL0wMWkCd1fqr-49" value="cFifo" style="rounded=1;whiteSpace=wrap;html=1;" parent="1" vertex="1">
          <mxGeometry x="2090" y="510" width="120" height="60" as="geometry" />
        </mxCell>
        <mxCell id="dXFlLC0BL0wMWkCd1fqr-50" value="" style="endArrow=classic;html=1;rounded=0;exitX=0.5;exitY=1;exitDx=0;exitDy=0;entryX=0.5;entryY=0;entryDx=0;entryDy=0;" parent="1" source="dXFlLC0BL0wMWkCd1fqr-49" target="dXFlLC0BL0wMWkCd1fqr-12" edge="1">
          <mxGeometry width="50" height="50" relative="1" as="geometry">
            <mxPoint x="2140" y="630" as="sourcePoint" />
            <mxPoint x="2190" y="580" as="targetPoint" />
          </mxGeometry>
        </mxCell>
        <mxCell id="dXFlLC0BL0wMWkCd1fqr-51" value="" style="endArrow=classic;html=1;rounded=0;edgeStyle=orthogonalEdgeStyle;entryX=0;entryY=0.5;entryDx=0;entryDy=0;" parent="1" target="dXFlLC0BL0wMWkCd1fqr-12" edge="1">
          <mxGeometry width="50" height="50" relative="1" as="geometry">
            <mxPoint x="2020" y="555" as="sourcePoint" />
            <mxPoint x="2070" y="505" as="targetPoint" />
          </mxGeometry>
        </mxCell>
        <mxCell id="dXFlLC0BL0wMWkCd1fqr-52" value="" style="endArrow=classic;html=1;rounded=0;" parent="1" edge="1">
          <mxGeometry width="50" height="50" relative="1" as="geometry">
            <mxPoint x="2210" y="539.5" as="sourcePoint" />
            <mxPoint x="2320" y="540" as="targetPoint" />
          </mxGeometry>
        </mxCell>
        <mxCell id="dXFlLC0BL0wMWkCd1fqr-53" value="o_drive" style="edgeLabel;html=1;align=center;verticalAlign=middle;resizable=0;points=[];" parent="dXFlLC0BL0wMWkCd1fqr-52" vertex="1" connectable="0">
          <mxGeometry x="-0.1638" y="2" relative="1" as="geometry">
            <mxPoint as="offset" />
          </mxGeometry>
        </mxCell>
        <mxCell id="dXFlLC0BL0wMWkCd1fqr-54" value="" style="endArrow=classic;html=1;rounded=0;" parent="1" edge="1">
          <mxGeometry width="50" height="50" relative="1" as="geometry">
            <mxPoint x="2210" y="730" as="sourcePoint" />
            <mxPoint x="2320" y="730" as="targetPoint" />
          </mxGeometry>
        </mxCell>
        <mxCell id="dXFlLC0BL0wMWkCd1fqr-55" value="data" style="edgeLabel;html=1;align=center;verticalAlign=middle;resizable=0;points=[];" parent="dXFlLC0BL0wMWkCd1fqr-54" vertex="1" connectable="0">
          <mxGeometry x="-0.2364" y="4" relative="1" as="geometry">
            <mxPoint as="offset" />
          </mxGeometry>
        </mxCell>
        <mxCell id="dXFlLC0BL0wMWkCd1fqr-56" value="" style="endArrow=classic;html=1;rounded=0;" parent="1" edge="1">
          <mxGeometry width="50" height="50" relative="1" as="geometry">
            <mxPoint x="2320" y="550" as="sourcePoint" />
            <mxPoint x="2210" y="550" as="targetPoint" />
          </mxGeometry>
        </mxCell>
        <mxCell id="dXFlLC0BL0wMWkCd1fqr-57" value="I_free" style="edgeLabel;html=1;align=center;verticalAlign=middle;resizable=0;points=[];" parent="dXFlLC0BL0wMWkCd1fqr-56" vertex="1" connectable="0">
          <mxGeometry x="0.2" relative="1" as="geometry">
            <mxPoint as="offset" />
          </mxGeometry>
        </mxCell>
        <mxCell id="-PCPPVoJTsgjooBXtaX3-1" value="" style="endArrow=classic;html=1;rounded=0;exitX=-0.022;exitY=0.727;exitDx=0;exitDy=0;exitPerimeter=0;" edge="1" parent="1">
          <mxGeometry width="50" height="50" relative="1" as="geometry">
            <mxPoint x="279.9979999999998" y="850.0000000000001" as="sourcePoint" />
            <mxPoint x="120" y="850.09" as="targetPoint" />
          </mxGeometry>
        </mxCell>
        <mxCell id="-PCPPVoJTsgjooBXtaX3-2" value="I_drive" style="edgeLabel;html=1;align=center;verticalAlign=middle;resizable=0;points=[];" vertex="1" connectable="0" parent="-PCPPVoJTsgjooBXtaX3-1">
          <mxGeometry x="0.15" y="-2" relative="1" as="geometry">
            <mxPoint x="2" as="offset" />
          </mxGeometry>
        </mxCell>
        <mxCell id="-PCPPVoJTsgjooBXtaX3-3" value="" style="endArrow=classic;html=1;rounded=0;" edge="1" parent="1">
          <mxGeometry width="50" height="50" relative="1" as="geometry">
            <mxPoint x="120" y="1000" as="sourcePoint" />
            <mxPoint x="280" y="1000" as="targetPoint" />
          </mxGeometry>
        </mxCell>
        <mxCell id="-PCPPVoJTsgjooBXtaX3-4" value="o_drive" style="edgeLabel;html=1;align=center;verticalAlign=middle;resizable=0;points=[];" vertex="1" connectable="0" parent="-PCPPVoJTsgjooBXtaX3-3">
          <mxGeometry x="-0.125" relative="1" as="geometry">
            <mxPoint as="offset" />
          </mxGeometry>
        </mxCell>
        <mxCell id="-PCPPVoJTsgjooBXtaX3-5" value="" style="endArrow=classic;html=1;rounded=0;" edge="1" parent="1">
          <mxGeometry width="50" height="50" relative="1" as="geometry">
            <mxPoint x="-15" y="70" as="sourcePoint" />
            <mxPoint x="-120" y="70.5" as="targetPoint" />
          </mxGeometry>
        </mxCell>
        <mxCell id="-PCPPVoJTsgjooBXtaX3-6" value="I_drive" style="edgeLabel;html=1;align=center;verticalAlign=middle;resizable=0;points=[];" vertex="1" connectable="0" parent="-PCPPVoJTsgjooBXtaX3-5">
          <mxGeometry x="0.3" y="-2" relative="1" as="geometry">
            <mxPoint as="offset" />
          </mxGeometry>
        </mxCell>
        <mxCell id="-PCPPVoJTsgjooBXtaX3-9" value="" style="endArrow=classic;html=1;rounded=0;" edge="1" parent="1">
          <mxGeometry width="50" height="50" relative="1" as="geometry">
            <mxPoint x="-120" y="80" as="sourcePoint" />
            <mxPoint x="-15" y="80" as="targetPoint" />
          </mxGeometry>
        </mxCell>
        <mxCell id="-PCPPVoJTsgjooBXtaX3-10" value="o_free" style="edgeLabel;html=1;align=center;verticalAlign=middle;resizable=0;points=[];" vertex="1" connectable="0" parent="-PCPPVoJTsgjooBXtaX3-9">
          <mxGeometry x="-0.181" y="1" relative="1" as="geometry">
            <mxPoint as="offset" />
          </mxGeometry>
        </mxCell>
        <mxCell id="-PCPPVoJTsgjooBXtaX3-12" value="" style="endArrow=classic;html=1;rounded=0;" edge="1" parent="1">
          <mxGeometry width="50" height="50" relative="1" as="geometry">
            <mxPoint x="120" y="870" as="sourcePoint" />
            <mxPoint x="280" y="870" as="targetPoint" />
          </mxGeometry>
        </mxCell>
        <mxCell id="-PCPPVoJTsgjooBXtaX3-13" value="o_free" style="edgeLabel;html=1;align=center;verticalAlign=middle;resizable=0;points=[];" vertex="1" connectable="0" parent="-PCPPVoJTsgjooBXtaX3-12">
          <mxGeometry x="-0.125" relative="1" as="geometry">
            <mxPoint as="offset" />
          </mxGeometry>
        </mxCell>
        <mxCell id="-PCPPVoJTsgjooBXtaX3-15" value="" style="endArrow=classic;html=1;rounded=0;edgeStyle=orthogonalEdgeStyle;" edge="1" parent="1">
          <mxGeometry width="50" height="50" relative="1" as="geometry">
            <mxPoint x="310" y="-110" as="sourcePoint" />
            <mxPoint x="110" y="41" as="targetPoint" />
            <Array as="points">
              <mxPoint x="310" y="41" />
            </Array>
          </mxGeometry>
        </mxCell>
        <mxCell id="-PCPPVoJTsgjooBXtaX3-16" value="InitialDrive" style="edgeLabel;html=1;align=center;verticalAlign=middle;resizable=0;points=[];" vertex="1" connectable="0" parent="-PCPPVoJTsgjooBXtaX3-15">
          <mxGeometry x="-0.676" y="-3" relative="1" as="geometry">
            <mxPoint as="offset" />
          </mxGeometry>
        </mxCell>
      </root>
    </mxGraphModel>
  </diagram>
</mxfile>
